<mxfile host="app.diagrams.net" modified="2024-06-06T13:05:48.361Z" agent="Mozilla/5.0 (Windows NT 10.0; Win64; x64) AppleWebKit/537.36 (KHTML, like Gecko) Chrome/125.0.0.0 Safari/537.36" etag="0o9bI4o032ILUzNs7519" version="24.4.9" type="device">
  <diagram name="หน้า-1" id="wRy0d4V86tBtsUKXclSI">
    <mxGraphModel dx="1050" dy="522" grid="1" gridSize="10" guides="1" tooltips="1" connect="1" arrows="1" fold="1" page="1" pageScale="1" pageWidth="827" pageHeight="1169" math="0" shadow="0">
      <root>
        <mxCell id="0" />
        <mxCell id="1" parent="0" />
        <mxCell id="kljhpBqP5FRw1FykOc7d-8" style="edgeStyle=orthogonalEdgeStyle;rounded=0;orthogonalLoop=1;jettySize=auto;html=1;entryX=0.5;entryY=0;entryDx=0;entryDy=0;" parent="1" source="kljhpBqP5FRw1FykOc7d-1" target="kljhpBqP5FRw1FykOc7d-6" edge="1">
          <mxGeometry relative="1" as="geometry" />
        </mxCell>
        <mxCell id="kljhpBqP5FRw1FykOc7d-1" value="RFID Tag, RFID Card" style="rounded=0;whiteSpace=wrap;html=1;" parent="1" vertex="1">
          <mxGeometry x="40" y="80" width="160" height="80" as="geometry" />
        </mxCell>
        <mxCell id="kljhpBqP5FRw1FykOc7d-9" style="edgeStyle=orthogonalEdgeStyle;rounded=0;orthogonalLoop=1;jettySize=auto;html=1;entryX=0.5;entryY=1;entryDx=0;entryDy=0;" parent="1" source="kljhpBqP5FRw1FykOc7d-2" target="kljhpBqP5FRw1FykOc7d-6" edge="1">
          <mxGeometry relative="1" as="geometry" />
        </mxCell>
        <mxCell id="kljhpBqP5FRw1FykOc7d-2" value="Username and Password&lt;br&gt;Login" style="rounded=0;whiteSpace=wrap;html=1;" parent="1" vertex="1">
          <mxGeometry x="40" y="240" width="160" height="80" as="geometry" />
        </mxCell>
        <mxCell id="kljhpBqP5FRw1FykOc7d-3" value="RFID Reader" style="rounded=0;whiteSpace=wrap;html=1;" parent="1" vertex="1">
          <mxGeometry x="360" y="160" width="120" height="80" as="geometry" />
        </mxCell>
        <mxCell id="kljhpBqP5FRw1FykOc7d-7" style="edgeStyle=orthogonalEdgeStyle;rounded=0;orthogonalLoop=1;jettySize=auto;html=1;entryX=0;entryY=0.5;entryDx=0;entryDy=0;" parent="1" source="kljhpBqP5FRw1FykOc7d-6" target="kljhpBqP5FRw1FykOc7d-3" edge="1">
          <mxGeometry relative="1" as="geometry" />
        </mxCell>
        <mxCell id="kljhpBqP5FRw1FykOc7d-6" value="" style="ellipse;whiteSpace=wrap;html=1;aspect=fixed;" parent="1" vertex="1">
          <mxGeometry x="270" y="190" width="20" height="20" as="geometry" />
        </mxCell>
      </root>
    </mxGraphModel>
  </diagram>
</mxfile>
